<?xml version="1.0" encoding="utf-8"?>
<!-- Uploaded to: SVG Repo, www.svgrepo.com, Generator: SVG Repo Mixer Tools -->
<svg width="800px" height="800px" viewBox="0 -56 1136 1136" class="icon"  version="1.1" xmlns="http://www.w3.org/2000/svg"><path d="M545.870769 492.504615m-382.030769 0a382.030769 382.030769 0 1 0 764.061538 0 382.030769 382.030769 0 1 0-764.061538 0Z" fill="#C9D787" /><path d="M545.870769 891.864615c-220.16 0-399.36-179.2-399.36-399.36 0-220.16 179.2-399.36 399.36-399.36 220.16 0 399.36 179.2 399.36 399.36 0.196923 220.16-179.003077 399.36-399.36 399.36z m0-764.258461C344.812308 127.606154 181.169231 291.249231 181.169231 492.504615c0 201.058462 163.643077 364.898462 364.898461 364.898462 201.058462 0 364.898462-163.643077 364.898462-364.898462-0.196923-201.255385-163.84-364.898462-365.095385-364.898461z" fill="#493B4E" /><path d="M410.387692 698.683077s-136.270769 22.252308-65.575384-134.892308c0 0 56.910769-63.409231 197.513846-63.409231 0 0 5.12 69.12 18.116923 92.947693 0 0 27.372308 69.907692 5.710769 126.818461 0 0-17.329231 53.366154-81.526154 54.744616-64.196923 1.575385-74.24-76.209231-74.24-76.209231zM556.701538 500.381538s38.990769 163.643077 59.864616 177.427693 50.412308 56.910769 109.489231 4.332307c0 0 27.372308-16.541538 5.12-64.787692 0 0 65.575385 18.707692 76.406153-38.203077 0 0 27.372308-74.24-83.692307-94.523077 0.196923-0.196923-134.695385 2.756923-167.187693 15.753846zM542.326154 488.172308s-208.344615 22.252308-223.507692 12.20923c-15.163077-10.043077-51.2-29.538462-45.489231-91.56923 0 0 4.332308-34.658462 69.12-38.99077h8.664615s-23.827692-56.32 21.661539-75.618461c0 0 69.12-43.913846 110.276923-6.498462s60.652308 152.812308 59.273846 200.467693z" fill="#FFFFFF" /><path d="M550.990769 484.430769s-11.618462-148.48 10.043077-191.803077 111.655385-64.196923 113.230769 23.04c0 0 97.28-44.307692 95.113847 71.876923 0 0 6.498462 68.529231-117.563077 79.36l-100.824616 17.526154z" fill="#FFFFFF" /></svg>